<?xml version="1.0" encoding="UTF-8"?>
<svg xmlns="http://www.w3.org/2000/svg" xmlns:xlink="http://www.w3.org/1999/xlink" width="100" zoomAndPan="magnify" viewBox="0 0 75 74.999997" height="100" preserveAspectRatio="xMidYMid meet" version="1.0">
  <defs>
    <clipPath id="d5840fb2b7">
      <path d="M 2.28125 14.34375 L 72.78125 14.34375 L 72.78125 21 L 2.28125 21 Z M 2.28125 14.34375 " clip-rule="nonzero"></path>
    </clipPath>
    <clipPath id="48775e111f">
      <path d="M 2.28125 34 L 72.78125 34 L 72.78125 41 L 2.28125 41 Z M 2.28125 34 " clip-rule="nonzero"></path>
    </clipPath>
    <clipPath id="0da9e96440">
      <path d="M 2.28125 54 L 72.78125 54 L 72.78125 60.84375 L 2.28125 60.84375 Z M 2.28125 54 " clip-rule="nonzero"></path>
    </clipPath>
  </defs>
  <g clip-path="url(#d5840fb2b7)">
    <path fill="#004e87" d="M 72.710938 17.375 C 72.710938 19.039062 71.359375 20.390625 69.691406 20.390625 L 5.300781 20.390625 C 3.636719 20.390625 2.285156 19.039062 2.285156 17.375 C 2.285156 15.707031 3.636719 14.355469 5.300781 14.355469 L 69.691406 14.355469 C 71.359375 14.355469 72.710938 15.707031 72.710938 17.375 Z M 72.710938 17.375 " fill-opacity="1" fill-rule="evenodd"></path>
  </g>
  <g clip-path="url(#48775e111f)">
    <path fill="#004e87" d="M 72.710938 37.496094 C 72.710938 39.164062 71.359375 40.515625 69.691406 40.515625 L 5.300781 40.515625 C 3.636719 40.515625 2.285156 39.164062 2.285156 37.496094 C 2.285156 35.828125 3.636719 34.476562 5.300781 34.476562 L 69.691406 34.476562 C 71.359375 34.476562 72.710938 35.828125 72.710938 37.496094 Z M 72.710938 37.496094 " fill-opacity="1" fill-rule="evenodd"></path>
  </g>
  <g clip-path="url(#0da9e96440)">
    <path fill="#004e87" d="M 72.710938 57.617188 C 72.710938 59.285156 71.359375 60.636719 69.691406 60.636719 L 5.300781 60.636719 C 3.636719 60.636719 2.285156 59.285156 2.285156 57.617188 C 2.285156 55.949219 3.636719 54.597656 5.300781 54.597656 L 69.691406 54.597656 C 71.359375 54.597656 72.710938 55.949219 72.710938 57.617188 Z M 72.710938 57.617188 " fill-opacity="1" fill-rule="evenodd"></path>
  </g>
</svg>
